<!DOCTYPE svg PUBLIC "-//W3C//DTD SVG 20010904//EN" "http://www.w3.org/TR/2001/REC-SVG-20010904/DTD/svg10.dtd">
<svg version="1.0" xmlns="http://www.w3.org/2000/svg" width="389px" height="176px" viewBox="0 0 3890 1760" preserveAspectRatio="xMidYMid meet">
<g id="layer101" fill="#9f743d" stroke="none">
<path d="M215 1746 c-32 -7 -61 -18 -63 -25 -2 -6 -9 -11 -15 -11 -6 0 -19 -8 -30 -17 -10 -10 -26 -18 -35 -18 -11 0 -16 -7 -15 -20 1 -11 -4 -40 -13 -66 -27 -83 -35 -230 -40 -724 -5 -420 -4 -500 10 -563 26 -123 67 -195 151 -261 50 -40 75 -41 929 -40 452 1 1210 5 1686 8 476 3 866 3 868 -1 2 -4 10 -1 19 7 8 8 25 15 39 15 13 0 24 4 24 9 0 5 10 11 23 15 42 11 94 70 117 134 l22 61 -7 568 c-3 312 -7 594 -7 625 0 32 -4 56 -8 53 -4 -2 -10 12 -13 33 -3 20 -9 48 -13 61 -5 18 -4 22 7 19 8 -3 13 -11 11 -17 -1 -7 2 -10 7 -7 4 3 9 17 9 31 0 14 -3 23 -6 21 -3 -3 -12 0 -20 7 -11 8 -14 8 -9 0 4 -6 3 -14 -3 -18 -5 -3 -11 0 -11 7 -3 30 -5 35 -19 49 -8 9 -27 19 -41 22 -22 6 -25 11 -21 32 2 15 0 25 -7 25 -6 0 -11 -7 -11 -15 0 -8 -4 -15 -10 -15 -5 0 -7 7 -4 15 7 18 -22 21 -30 3 -4 -9 -8 -10 -11 -2 -7 15 -449 17 -810 5 -179 -6 -252 -5 -257 3 -6 8 -8 8 -8 -1 0 -8 -55 -11 -196 -12 -108 -1 -207 -4 -220 -7 -15 -4 -24 -2 -24 5 0 14 -27 14 -32 0 -3 -8 -176 -8 -623 1 -1147 21 -1225 21 -1290 6z"/>
</g>
<g id="layer102" fill="#b8925c" stroke="none">
<path d="M297 1753 c18 -2 50 -2 70 0 21 2 7 4 -32 4 -38 0 -55 -2 -38 -4z"/>
<path d="M485 1753 c121 -7 255 -7 255 0 0 4 -69 6 -152 5 -84 -1 -130 -3 -103 -5z"/>
<path d="M3020 1752 c0 -5 51 -7 113 -5 158 6 164 10 15 12 -71 0 -128 -3 -128 -7z"/>
<path d="M3686 1745 c-4 -12 6 -21 37 -34 45 -19 91 -65 102 -102 5 -16 9 -18 15 -9 4 7 13 9 19 6 6 -4 8 -12 5 -18 -4 -6 -2 -8 3 -5 6 4 11 18 11 32 0 14 -3 23 -6 21 -3 -3 -12 0 -20 7 -11 8 -14 8 -9 0 4 -6 3 -14 -3 -18 -5 -3 -11 0 -11 7 -3 30 -5 35 -19 49 -8 9 -27 19 -41 22 -22 6 -25 11 -21 32 2 15 0 25 -7 25 -6 0 -11 -7 -11 -15 0 -8 -4 -15 -10 -15 -5 0 -7 7 -4 15 4 9 0 15 -9 15 -8 0 -18 -7 -21 -15z"/>
<path d="M885 1741 c51 -12 225 -13 225 -1 0 6 -44 10 -127 9 -74 -1 -115 -4 -98 -8z"/>
<path d="M2299 1742 c-61 -1 -109 -7 -109 -12 0 -13 327 -13 334 -1 8 12 -83 17 -225 13z"/>
<path d="M2670 1740 c0 -12 157 -12 215 -1 30 7 8 9 -87 10 -80 1 -128 -3 -128 -9z"/>
<path d="M156 1725 c-8 -8 -18 -15 -22 -15 -4 0 -16 -8 -27 -17 -10 -10 -26 -18 -35 -18 -11 0 -16 -7 -15 -20 1 -11 -5 -42 -15 -70 -11 -34 -17 -81 -16 -150 0 -63 -3 -91 -8 -75 -4 14 -6 -27 -4 -95 2 -66 0 -106 -3 -90 -4 17 -8 -158 -9 -389 -2 -451 3 -504 51 -609 21 -47 62 -97 112 -136 50 -40 75 -41 929 -40 452 1 1210 5 1686 8 476 3 866 3 868 -1 2 -4 10 -1 19 7 8 8 25 15 39 15 13 0 24 4 24 9 0 5 10 11 23 15 40 10 93 70 115 129 21 55 21 71 20 554 0 274 -3 490 -7 481 -3 -10 -6 50 -5 133 1 137 -5 168 -20 114 -3 -11 -3 -3 0 18 6 44 -4 100 -16 92 -4 -3 -13 9 -20 26 -21 49 -84 95 -158 116 -76 21 -243 23 -637 10 -126 -4 -363 -12 -525 -17 -432 -14 -1117 -8 -1670 15 -317 13 -550 9 -613 -9 -64 -19 -127 -68 -147 -116 -7 -17 -15 -29 -17 -26 -2 2 5 22 16 44 23 45 71 89 107 98 13 3 24 10 24 15 0 14 -27 10 -44 -6z m-79 -522 c-2 -21 -4 -6 -4 32 0 39 2 55 4 38 2 -18 2 -50 0 -70z m3730 -435 c-2 -24 -4 -7 -4 37 0 44 2 63 4 43 2 -21 2 -57 0 -80z m10 -333 c-2 -77 -10 -158 -17 -180 -25 -80 -106 -133 -230 -149 -92 -12 -424 -16 -1775 -18 -1371 -2 -1463 -1 -1516 15 -66 21 -140 67 -163 102 -27 41 -46 135 -44 220 l1 80 7 -100 c4 -55 11 -109 15 -120 31 -85 83 -132 177 -160 52 -15 196 -16 1675 -12 1749 4 1678 1 1766 56 74 46 96 117 98 321 1 80 4 132 6 115 3 -16 3 -93 0 -170z"/>
<path d="M1275 1730 c29 -12 485 -12 485 0 0 6 -90 10 -252 9 -151 0 -245 -4 -233 -9z"/>
</g>
<g id="layer103" fill="#d3a972" stroke="none">
<path d="M3730 1751 c0 -5 -2 -16 -6 -24 -3 -9 5 -18 25 -26 30 -13 81 -76 81 -102 0 -12 2 -12 9 0 5 7 14 10 20 7 6 -4 8 -12 5 -18 -4 -6 -2 -8 3 -5 6 4 11 18 11 32 0 14 -3 23 -6 21 -3 -3 -12 0 -20 7 -11 8 -14 8 -9 0 4 -6 3 -14 -3 -18 -5 -3 -11 0 -11 7 -3 30 -5 35 -19 49 -8 9 -27 19 -41 22 -22 6 -25 11 -21 32 2 15 0 25 -7 25 -6 0 -11 -4 -11 -9z"/>
<path d="M280 1720 c-153 -18 -216 -84 -239 -252 -5 -40 -14 -156 -18 -258 -7 -166 -9 -176 -13 -95 -3 50 -5 -103 -5 -340 0 -236 3 -414 7 -395 5 25 6 20 3 -18 -5 -59 3 -114 15 -107 5 3 6 -5 2 -17 -3 -14 -1 -19 6 -14 8 4 10 2 6 -8 -11 -29 50 -119 121 -175 50 -40 75 -41 929 -40 452 1 1210 5 1686 8 476 3 866 3 868 -1 2 -4 10 -1 19 7 8 8 25 15 39 15 13 0 24 4 24 9 0 5 10 11 23 15 52 13 130 116 111 147 -4 7 -3 10 4 5 12 -7 28 56 18 72 -6 9 -7 606 -2 827 3 118 3 118 -3 20 -6 -99 -6 -99 -13 80 -9 211 -28 351 -55 397 -32 56 -94 95 -180 114 -84 18 -299 17 -948 -6 -301 -11 -1344 -11 -1645 1 -347 12 -693 17 -760 9z m-151 -168 c-30 -61 -38 -123 -49 -407 -14 -356 -1 -821 24 -880 24 -57 59 -89 129 -122 l62 -28 1190 -3 c1419 -3 2084 7 2163 32 67 22 116 65 139 124 16 41 18 76 16 292 -4 513 -19 902 -37 949 -9 24 -14 46 -12 48 8 8 36 -82 46 -147 5 -36 10 -171 10 -300 0 -129 5 -334 10 -454 21 -478 -19 -547 -338 -566 -70 -4 -809 -8 -1643 -9 -1390 -1 -1519 0 -1564 16 -135 46 -185 104 -205 240 -12 88 -13 765 0 949 11 163 23 227 50 272 27 44 32 40 9 -6z"/>
</g>
<g id="layer104" fill="#d5b98e" stroke="none">
<path d="M588 1753 c28 -2 76 -2 105 0 28 2 5 3 -53 3 -58 0 -81 -1 -52 -3z"/>
<path d="M3058 1753 c23 -2 59 -2 80 0 20 2 1 4 -43 4 -44 0 -61 -2 -37 -4z"/>
<path d="M3730 1751 c0 -5 -2 -16 -6 -24 -3 -9 6 -19 25 -27 17 -7 43 -31 58 -54 16 -22 35 -41 43 -41 8 0 14 -6 12 -13 -1 -8 2 -11 7 -8 4 3 9 17 9 31 0 14 -3 23 -6 21 -3 -3 -12 0 -20 7 -11 8 -14 8 -9 0 4 -6 3 -14 -3 -18 -5 -3 -11 0 -11 7 -3 30 -5 35 -19 49 -8 9 -27 19 -41 22 -22 6 -25 11 -21 32 2 15 0 25 -7 25 -6 0 -11 -4 -11 -9z"/>
<path d="M973 1743 c26 -2 68 -2 95 0 26 2 4 3 -48 3 -52 0 -74 -1 -47 -3z"/>
<path d="M2303 1742 c-64 -1 -113 -7 -113 -12 0 -11 84 -11 195 -1 99 9 51 17 -82 13z"/>
<path d="M2713 1743 c26 -2 68 -2 95 0 26 2 4 3 -48 3 -52 0 -74 -1 -47 -3z"/>
<path d="M1430 1730 c164 -12 330 -11 330 0 0 6 -78 9 -217 8 -188 -1 -204 -2 -113 -8z"/>
<path d="M107 1693 c-10 -10 -25 -18 -35 -18 -11 0 -16 -7 -15 -22 2 -12 -4 -41 -12 -64 -8 -23 -15 -49 -14 -58 0 -9 9 11 19 45 13 39 33 74 55 97 20 20 32 37 28 37 -5 0 -17 -8 -26 -17z"/>
<path d="M2750 1640 c-515 -9 -1251 -11 -1965 -4 l-530 5 -50 -28 c-111 -63 -120 -118 -120 -778 0 -457 2 -504 18 -552 23 -65 78 -116 149 -138 95 -30 342 -35 1438 -30 1489 7 1812 12 1911 30 190 33 219 109 200 523 -6 123 -11 327 -11 453 0 236 -11 351 -37 404 -18 36 -63 85 -77 85 -6 0 -24 7 -41 16 -38 21 -289 25 -885 14z"/>
<path d="M3780 1629 c0 -4 7 -26 15 -49 13 -38 28 -137 41 -285 7 -70 13 -97 23 -91 4 3 6 25 4 48 -22 260 -32 317 -63 358 -11 14 -20 22 -20 19z"/>
<path d="M46 1474 c-4 -17 -9 -73 -12 -125 -19 -347 -35 -1038 -23 -969 5 27 7 29 8 10 1 -14 3 -43 6 -65 4 -35 3 -36 -4 -10 -13 46 -13 0 0 -51 9 -33 14 -42 21 -32 6 9 7 6 3 -9 -11 -39 44 -122 120 -182 50 -40 75 -41 929 -40 452 1 1210 5 1686 8 476 3 866 3 868 -1 2 -4 10 -1 19 7 8 8 25 15 39 15 13 0 24 4 24 9 0 5 10 11 23 15 35 9 91 67 111 116 17 40 19 72 17 275 -1 247 -11 479 -19 471 -2 -3 -6 -141 -8 -307 -2 -166 -6 -304 -9 -307 -2 -3 -2 -16 1 -29 7 -25 -25 -102 -54 -133 -41 -42 -124 -67 -251 -74 -53 -3 -805 -8 -1671 -11 -1382 -5 -1580 -4 -1618 9 -23 8 -42 12 -42 8 0 -3 -7 4 -16 16 -9 13 -22 21 -29 18 -8 -3 -20 9 -29 27 -8 18 -16 28 -16 22 -2 -33 -52 107 -68 190 -16 84 -18 139 -17 340 4 324 13 595 24 682 5 39 6 86 2 105 l-8 33 -7 -31z"/>
<path d="M3867 1494 c-4 -4 -7 -23 -6 -43 l1 -36 9 33 c11 36 9 58 -4 46z"/>
<path d="M13 1325 c0 -33 2 -45 4 -27 2 18 2 45 0 60 -2 15 -4 0 -4 -33z"/>
<path d="M3883 1170 c0 -36 2 -50 4 -32 2 17 2 47 0 65 -2 17 -4 3 -4 -33z"/>
<path d="M4 1115 c0 -49 1 -71 3 -48 2 23 2 64 0 90 -2 26 -3 8 -3 -42z"/>
<path d="M3858 1089 c3 -19 0 -34 -8 -39 -16 -10 -4 -83 13 -77 7 2 12 11 11 20 0 10 -1 42 -2 72 -1 30 -6 55 -10 55 -5 0 -6 -14 -4 -31z"/>
</g>
<g id="layer105" fill="#f0db9f" stroke="none">
<path d="M2750 1640 c-515 -9 -1251 -11 -1965 -4 l-530 5 -50 -28 c-111 -63 -120 -118 -120 -778 0 -457 2 -504 18 -552 23 -65 78 -116 149 -138 95 -30 342 -35 1438 -30 1489 7 1812 12 1911 30 190 33 218 107 199 518 -5 122 -10 327 -10 455 0 238 -11 354 -37 407 -18 36 -63 85 -77 85 -6 0 -24 7 -41 16 -38 21 -289 25 -885 14z"/>
<path d="M2403 33 c26 -2 67 -2 90 0 23 2 2 3 -48 3 -49 0 -68 -1 -42 -3z"/>
<path d="M2958 33 c29 -2 74 -2 100 0 26 2 2 3 -53 3 -55 0 -76 -1 -47 -3z"/>
</g>


</svg>