<?xml version="1.0" standalone="no"?>
<!DOCTYPE svg PUBLIC "-//W3C//DTD SVG 20010904//EN"
 "http://www.w3.org/TR/2001/REC-SVG-20010904/DTD/svg10.dtd">
<svg version="1.0" xmlns="http://www.w3.org/2000/svg"
 width="389.000000pt" height="176.000000pt" viewBox="0 0 389.000000 176.000000"
 preserveAspectRatio="xMidYMid meet">
<metadata>
Created by potrace 1.16, written by Peter Selinger 2001-2019
</metadata>
<g transform="translate(0.000000,176.000000) scale(0.100000,-0.100000)"
fill="#000000" stroke="none">
<path d="M278 1652 c-65 -22 -116 -52 -144 -84 -13 -15 -7 -13 21 8 54 41 74
51 131 65 51 11 2899 15 3154 3 216 -10 285 -32 330 -107 11 -18 20 -28 20
-23 0 22 -47 76 -83 96 -85 48 -90 49 -1783 55 -1541 5 -1591 5 -1646 -13z"/>
<path d="M79 124 c14 -29 67 -73 97 -80 13 -3 24 -10 24 -16 0 -5 5 -6 10 -3
6 4 17 1 25 -5 18 -15 573 -15 678 1 43 6 129 7 214 3 93 -4 147 -3 155 4 12
9 1224 11 1238 1 3 -2 75 -4 160 -4 85 -1 288 -7 450 -14 301 -13 494 -9 517
11 8 6 16 8 20 5 3 -4 12 -2 20 5 7 6 16 8 19 5 4 -3 11 -2 18 3 6 6 26 22 44
36 18 14 37 36 43 48 7 12 -3 6 -22 -15 -20 -21 -59 -46 -94 -60 -57 -22 -71
-24 -315 -25 -140 0 -331 2 -425 6 -705 31 -1445 31 -2150 1 -99 -5 -263 -7
-365 -6 -223 3 -273 15 -333 79 -21 22 -34 31 -28 20z"/>
</g>
</svg>
